<?xml version="1.0" encoding="UTF-8"?>
<!DOCTYPE svg PUBLIC "-//W3C//DTD SVG 1.1//EN" "http://www.w3.org/Graphics/SVG/1.1/DTD/svg11.dtd">
<!-- Creator: CorelDRAW 2021 (64-Bit) -->
<svg xmlns="http://www.w3.org/2000/svg" xml:space="preserve" width="203.833mm" height="49.6848mm" version="1.1" style="shape-rendering:geometricPrecision; text-rendering:geometricPrecision; image-rendering:optimizeQuality; fill-rule:evenodd; clip-rule:evenodd"
viewBox="0 0 5804.35 1414.83"
 xmlns:xlink="http://www.w3.org/1999/xlink"
 xmlns:xodm="http://www.corel.com/coreldraw/odm/2003">
 <defs>
  <style type="text/css">
   <![CDATA[
    .fil1 {fill:red}
    .fil2 {fill:white}
    .fil0 {fill:white;fill-rule:nonzero}
   ]]>
  </style>
 </defs>
 <g id="Plan_x0020_1">
  <metadata id="CorelCorpID_0Corel-Layer"/>
  <path class="fil0" d="M2216.76 1201.12c-74.97,0 -144,-12.34 -207.08,-37.03 -63.08,-24.69 -117.94,-59.2 -164.57,-103.54 -46.63,-44.34 -82.74,-96.45 -108.34,-156.34 -25.6,-59.89 -38.4,-125.49 -38.4,-196.8 0,-71.31 12.8,-136.91 38.4,-196.8 25.6,-59.89 61.71,-112 108.34,-156.34 46.63,-44.34 101.49,-78.86 164.57,-103.54 63.09,-24.69 131.66,-37.03 205.71,-37.03 74.97,0 143.77,12.34 206.4,37.03 62.63,24.69 117.26,59.2 163.88,103.54 46.63,44.34 82.74,96.45 108.34,156.34 25.6,59.89 38.4,125.48 38.4,196.8 0,71.31 -12.8,137.14 -38.4,197.48 -25.6,60.34 -61.71,112.45 -108.34,156.34 -46.63,43.88 -101.26,78.17 -163.88,102.86 -62.63,24.69 -130.97,37.03 -205.02,37.03zm-1.37 -156.34c48.46,0 93.26,-8.23 134.4,-24.69 41.14,-16.46 76.8,-40 106.97,-70.63 30.17,-30.63 53.71,-66.29 70.63,-106.97 16.91,-40.69 25.37,-85.71 25.37,-135.08 0,-49.37 -8.46,-94.4 -25.37,-135.08 -16.91,-40.69 -40.46,-76.34 -70.63,-106.97 -30.17,-30.63 -65.83,-54.17 -106.97,-70.63 -41.14,-16.46 -85.94,-24.69 -134.4,-24.69 -48.45,0 -93.03,8.23 -133.71,24.69 -40.68,16.46 -76.34,40 -106.97,70.63 -30.63,30.63 -54.4,66.28 -71.32,106.97 -16.91,40.68 -25.37,85.71 -25.37,135.08 0,48.46 8.46,93.26 25.37,134.4 16.91,41.14 40.46,77.03 70.63,107.66 30.17,30.63 65.83,54.17 106.97,70.63 41.14,16.46 85.94,24.69 134.4,24.69z"/>
  <path id="_1" class="fil0" d="M2921.66 1187.4l0 -959.98 394.97 0c85.03,0 157.94,13.71 218.74,41.14 60.8,27.43 107.65,66.74 140.57,117.94 32.91,51.2 49.37,112 49.37,182.4 0,70.4 -16.46,130.97 -49.37,181.71 -32.92,50.74 -79.77,89.6 -140.57,116.57 -60.8,26.97 -133.71,40.46 -218.74,40.46l-296.22 0 79.54 -80.91 0 360.68 -178.28 0zm628.1 0l-242.74 -348.34 190.62 0 244.11 348.34 -192 0zm-449.82 -341.48l-79.54 -85.03 288 0c78.63,0 137.83,-16.91 177.6,-50.74 39.77,-33.83 59.66,-80.91 59.66,-141.26 0,-61.26 -19.88,-108.34 -59.66,-141.26 -39.77,-32.91 -98.97,-49.37 -177.6,-49.37l-288 0 79.54 -87.77 0 555.42z"/>
  <path id="_2" class="fil0" d="M3788.39 1187.4l431.99 -959.98 175.54 0 433.37 959.98 -186.51 0 -371.65 -865.36 71.31 0 -370.28 865.36 -183.77 0zm198.85 -222.17l48 -139.88 518.39 0 48 139.88 -614.39 0z"/>
  <path id="_3" class="fil0" d="M4951.34 1187.4l0 -959.98 449.82 0c115.2,0 202.97,22.63 263.31,67.88 60.34,45.26 90.51,105.83 90.51,181.71 0,51.2 -11.89,94.85 -35.65,130.97 -23.77,36.12 -55.54,64 -95.31,83.66 -39.77,19.66 -82.97,29.48 -129.6,29.48l24.68 -49.37c53.94,0 102.4,9.83 145.37,29.48 42.97,19.66 77.03,48.23 102.17,85.71 25.14,37.49 37.71,84.11 37.71,139.88 0,82.28 -31.54,146.28 -94.63,192 -63.09,45.71 -156.8,68.57 -281.14,68.57l-477.25 0zm178.28 -139.88l288 0c66.74,0 117.94,-10.97 153.6,-32.91 35.66,-21.94 53.48,-57.14 53.48,-105.6 0,-47.54 -17.83,-82.51 -53.48,-104.91 -35.66,-22.4 -86.85,-33.6 -153.6,-33.6l-301.71 0 0 -138.51 266.05 0c62.17,0 109.94,-10.97 143.31,-32.91 33.37,-21.94 50.06,-54.86 50.06,-98.74 0,-44.8 -16.69,-78.17 -50.06,-100.11 -33.37,-21.94 -81.14,-32.91 -143.31,-32.91l-252.34 0 0 680.22z"/>
  <circle class="fil1" cx="707.41" cy="707.41" r="707.41"/>
  <path class="fil2" d="M772.3 465.11l206.8 0 0 396.36 0 176.2 0 130.25c0,31.71 -25.94,57.66 -57.66,57.66l-149.15 0 -129.77 0 -68.35 0 -80.8 0c-31.71,0 -57.66,-25.94 -57.66,-57.66l0 -130.25 0 -572.56 206.8 0 0 396.36 129.77 0 0 -396.36zm-64.88 -321.42c75.56,0 136.81,61.25 136.81,136.8 0,75.56 -61.25,136.81 -136.81,136.81 -75.56,0 -136.8,-61.25 -136.8,-136.81 0,-75.56 61.25,-136.8 136.8,-136.8z"/>
 </g>
</svg>
